<?xml version="1.0" encoding="UTF-8"?>
<svg id="Layer_1" xmlns="http://www.w3.org/2000/svg" xmlns:xlink="http://www.w3.org/1999/xlink" version="1.1" viewBox="0 0 200 200">
  <!-- Generator: Adobe Illustrator 29.3.1, SVG Export Plug-In . SVG Version: 2.1.0 Build 151)  -->
  <defs>
    <style>
      .st0 {
        fill: url(#Degradado_sin_nombre_3);
      }

      .st1 {
        fill: url(#Degradado_sin_nombre_32);
      }

      .st2 {
        fill: url(#Degradado_sin_nombre_31);
      }
    </style>
    <linearGradient id="Degradado_sin_nombre_3" data-name="Degradado sin nombre 3" x1="54.7" y1="-49.7" x2="240.7" y2="136.3" gradientUnits="userSpaceOnUse">
      <stop offset="0" stop-color="#ffe185"/>
      <stop offset=".2" stop-color="#ffbb36"/>
      <stop offset=".4" stop-color="#ff5176"/>
      <stop offset=".5" stop-color="#f63395"/>
      <stop offset=".7" stop-color="#a436d2"/>
      <stop offset="1" stop-color="#5f4eed"/>
    </linearGradient>
    <linearGradient id="Degradado_sin_nombre_31" data-name="Degradado sin nombre 3" x1="2.9" y1="2.1" x2="188.9" y2="188.1" xlink:href="#Degradado_sin_nombre_3"/>
    <linearGradient id="Degradado_sin_nombre_32" data-name="Degradado sin nombre 3" x1="2.5" y1="2.5" x2="188.5" y2="188.5" xlink:href="#Degradado_sin_nombre_3"/>
  </defs>
  <path class="st0" d="M152.4,36.4c-6.4,0-11.6,5.2-11.6,11.6s5.2,11.6,11.6,11.6,11.6-5.2,11.6-11.6-5.2-11.6-11.6-11.6Z"/>
  <path class="st2" d="M100.8,51.3c-26.9,0-48.7,21.9-48.7,48.7s21.9,48.7,48.7,48.7,48.7-21.9,48.7-48.7-21.9-48.7-48.7-48.7ZM100.8,131.2c-17.2,0-31.2-14-31.2-31.2s14-31.2,31.2-31.2,31.2,14,31.2,31.2-14,31.2-31.2,31.2Z"/>
  <path class="st1" d="M139.5,198.9H60.5c-32.8,0-59.4-26.7-59.4-59.4V60.5C1.1,27.8,27.8,1.1,60.5,1.1h79c32.8,0,59.4,26.7,59.4,59.4v79c0,32.8-26.7,59.4-59.4,59.4ZM60.5,19.7c-22.5,0-40.8,18.3-40.8,40.8v79c0,22.5,18.3,40.8,40.8,40.8h79c22.5,0,40.8-18.3,40.8-40.8V60.5c0-22.5-18.3-40.8-40.8-40.8H60.5Z"/>
</svg>