<?xml version="1.0" encoding="UTF-8"?>
<svg id="Layer_4" data-name="Layer 4" xmlns="http://www.w3.org/2000/svg" xmlns:xlink="http://www.w3.org/1999/xlink" viewBox="0 0 100 100">
  <defs>
    <style>
      .cls-1 {
        fill: #638231;
      }

      .cls-2 {
        fill: #67832e;
      }

      .cls-3 {
        fill: #88af42;
      }

      .cls-4 {
        fill: #828995;
      }

      .cls-5 {
        fill: #577223;
      }

      .cls-6 {
        fill: #aece6b;
      }

      .cls-7 {
        fill: #75983c;
      }

      .cls-8 {
        fill: #88b13f;
      }

      .cls-9 {
        fill: #b9d07f;
      }

      .cls-10 {
        fill: #2872fa;
      }

      .cls-11 {
        fill: #7fa33d;
      }

      .cls-12 {
        fill: #0c1205;
      }

      .cls-13 {
        fill: #65822d;
      }

      .cls-14 {
        fill: #f7c587;
      }

      .cls-15 {
        fill: #2972f9;
      }

      .cls-16 {
        fill: #adcc6f;
      }

      .cls-17 {
        fill: #aac965;
      }

      .cls-18 {
        fill: #769835;
      }

      .cls-19 {
        fill: #e3a96f;
      }

      .cls-20 {
        fill: #030303;
      }

      .cls-21 {
        fill: #607c2b;
      }

      .cls-22 {
        fill: #5b7427;
      }

      .cls-23 {
        fill: #b1cd72;
      }

      .cls-24 {
        fill: url(#linear-gradient);
      }

      .cls-25 {
        fill: #586f29;
      }

      .cls-26 {
        fill: #2873f8;
      }

      .cls-27 {
        fill: #4f6f21;
      }

      .cls-28 {
        fill: #66872d;
      }

      .cls-29 {
        fill: #698630;
      }

      .cls-30 {
        fill: #85a93c;
      }

      .cls-31 {
        fill: #6e8b39;
      }

      .cls-32 {
        fill: #586f28;
      }

      .cls-33 {
        fill: #f1c180;
      }

      .cls-34 {
        fill: #2973f8;
      }

      .cls-35 {
        fill: #98bb4e;
      }

      .cls-36 {
        fill: #3679f7;
      }

      .cls-37 {
        fill: #90b64f;
      }

      .cls-38 {
        fill: #2975f6;
      }

      .cls-39 {
        fill: #0c1504;
      }

      .cls-40 {
        fill: #537321;
      }

      .cls-41 {
        fill: #85ab3e;
      }

      .cls-42 {
        fill: #2772f8;
      }

      .cls-43 {
        fill: #80a53a;
      }

      .cls-44 {
        fill: #668831;
      }

      .cls-45 {
        fill: #556d27;
      }

      .cls-46 {
        fill: #617e2a;
      }

      .cls-47 {
        fill: #749435;
      }

      .cls-48 {
        fill: #576e28;
      }

      .cls-49 {
        fill: #82a93b;
      }

      .cls-50 {
        fill: #bed983;
      }

      .cls-51 {
        fill: #e37370;
      }

      .cls-52 {
        fill: #b0d378;
      }

      .cls-53 {
        fill: #77973c;
      }

      .cls-54 {
        fill: #66832f;
      }

      .cls-55 {
        fill: #81a53e;
      }

      .cls-56 {
        fill: #6b8e2f;
      }

      .cls-57 {
        fill: #85ac3e;
      }

      .cls-58 {
        fill: #3a4a19;
      }

      .cls-59 {
        fill: #070a02;
      }

      .cls-60 {
        fill: #7b9f36;
      }

      .cls-61 {
        fill: #95b858;
      }

      .cls-62 {
        fill: #6f9036;
      }

      .cls-63 {
        fill: #ff4e70;
      }

      .cls-64 {
        fill: #82a93a;
      }

      .cls-65 {
        fill: #729236;
      }

      .cls-66 {
        fill: #87ad3d;
      }

      .cls-67 {
        fill: #709237;
      }

      .cls-68 {
        fill: #516924;
      }

      .cls-69 {
        fill: #709532;
      }

      .cls-70 {
        fill: #ea6354;
      }

      .cls-71 {
        fill: #2a77fb;
      }

      .cls-72 {
        fill: #7da039;
      }

      .cls-73 {
        fill: #7a9c39;
      }

      .cls-74 {
        fill: #090c04;
      }

      .cls-75 {
        fill: #89b13f;
      }

      .cls-76 {
        fill: #71767f;
      }

      .cls-77 {
        fill: #060804;
      }

      .cls-78 {
        fill: #719631;
      }

      .cls-79 {
        fill: #a8c768;
      }

      .cls-80 {
        fill: #060505;
      }

      .cls-81 {
        fill: #9bbc53;
      }

      .cls-82 {
        fill: #020301;
      }

      .cls-83 {
        fill: #2771f5;
      }

      .cls-84 {
        fill: #85ad3c;
      }

      .cls-85 {
        fill: #fbfbfd;
      }
    </style>
    <linearGradient id="linear-gradient" x1="-1646.92" y1="1456.28" x2="-1645.95" y2="1428.69" gradientTransform="translate(2157.5 733.18) rotate(59.25)" gradientUnits="userSpaceOnUse">
      <stop offset="0" stop-color="#bc8c5c"/>
      <stop offset=".58" stop-color="#af603f"/>
      <stop offset=".9" stop-color="#644141"/>
    </linearGradient>
  </defs>
  <g>
    <path class="cls-19" d="M53.3,69.14c.6.67,1.37.87,2.23.84,1.95-.07,3.8-.64,5.63-1.27,1.74-.6,3.42-1.35,5.09-2.11,3.64-1.67,7.04-3.78,10.5-5.78,1.13-.65,2.23-1.35,3.31-2.09,1.48-1.02,2.97-2.02,4.41-3.09,1.65-1.23,3.28-2.47,4.73-3.93,1.12-1.12,2.12-2.33,2.73-3.83.22-.54.32-1.11.34-1.69-.79-.04-1.56.08-2.33.17-.28.03-.44.14-.54.43-.44,1.23-1.47,1.86-2.77,1.73-.65-.06-1.25-.28-1.81-.6-.18-.1-.32-.11-.52-.05-.78.26-1.58.5-2.36.76-.38.13-.77.23-1.12.5q1.16.37,1.77,1.48c.04.07.08.15.12.23.2.37.12.69-.19.95-.22.18-.44.36-.69.5-.23.13-.24.26-.11.47.21.34.39.7.6,1.03.15.23.14.37-.1.55-1.81,1.41-3.64,2.79-5.52,4.1-3.32,2.33-6.95,4.01-10.8,5.23-.25.08-.36.01-.46-.2-.14-.29-.34-.56-.47-.86-.16-.36-.34-.47-.7-.22-.21.14-.46.22-.7.3-.36.12-.64.02-.83-.32-.18-.31-.35-.62-.54-.92-.2-.33-.22-.66-.05-1.02.07-.15.21-.3.11-.52-.76.51-1.5,1.01-2.26,1.49-.24.16-.38.34-.45.63-.19.73-.55,1.37-1.06,1.93-.39.43-.84.83-1.43.87-.58.04-.97.34-1.35.7-.11.11-.24.21-.35.31-.94.9-1.81,1.85-2.31,3.08.14,0,.19.12.26.2Z"/>
    <path class="cls-33" d="M53.04,68.94c.14,0,.19.12.26.2.6.67,1.37.87,2.23.84,1.95-.07,3.8-.64,5.63-1.27,1.74-.6,3.42-1.35,5.09-2.11,3.64-1.67,7.04-3.78,10.5-5.78,1.13-.65,2.23-1.35,3.31-2.09,1.48-1.02,2.97-2.02,4.41-3.09,1.65-1.23,3.28-2.47,4.73-3.93,1.12-1.12,2.12-2.33,2.73-3.83.22-.54.32-1.11.34-1.69,1.43-.04,2.79.18,3.97,1.07-.08.36-.13.73-.29,1.06-.73,1.54-1.73,2.9-2.93,4.11-1.58,1.6-3.37,2.97-5.18,4.3-1.28.93-2.58,1.84-3.89,2.73-1.21.82-2.41,1.64-3.66,2.4-1.55.95-3.16,1.81-4.68,2.8-.65.43-1.4.68-2.07,1.09-.58.35-1.19.66-1.79.97-1.28.67-2.59,1.28-3.88,1.92-1.09.55-2.21,1.01-3.33,1.48-1.71.72-3.45,1.34-5.26,1.77-1.69.4-3.4.71-5.14.48-.65-.08-1.26-.31-1.74-.81.07-.91.29-1.78.66-2.61Z"/>
    <path class="cls-70" d="M53.65,75.35c1.28.52,2.61.44,3.92.26,3.57-.49,6.97-1.55,10.24-3.03,3.32-1.51,6.55-3.19,9.76-4.93,3.08-1.67,6.13-3.39,9.07-5.3,0-.03-.02-.05-.03-.08-.62-.26-1.14-.7-1.71-1.03-.36-.21-.47-.18-.53.25-.07.51-.09,1.02-.15,1.53-.08.62-.3.74-.86.5-.35-.15-.68-.35-1.02-.53-.76-.41-.92-.32-.97.56-.02.33,0,.66,0,.98-.02.67-.32.88-.95.62-.35-.14-.68-.35-1.02-.54-.51-.29-.62-.24-.66.36-.03.38-.01.77-.05,1.15-.07.73-.35.89-1.02.63-.38-.14-.7-.38-1.03-.6-.48-.31-.58-.27-.67.31-.07.45-.1.91-.18,1.35-.12.63-.4.77-.97.47-.36-.19-.69-.44-1.04-.67-.46-.29-.61-.23-.69.32-.06.45-.07.91-.14,1.36-.09.58-.32.7-.86.47-.49-.21-.92-.52-1.37-.79-.31-.19-.46-.11-.5.25-.05.5-.09.99-.18,1.48-.11.62-.41.75-.98.48-.4-.19-.74-.48-1.1-.73-.34-.24-.46-.2-.56.21-.12.48-.19.98-.31,1.46-.17.68-.43.79-1.04.42-.39-.24-.73-.54-1.1-.8-.41-.29-.55-.24-.65.27-.08.41-.12.82-.22,1.22-.15.67-.4.76-1,.4-.39-.24-.74-.54-1.05-.86-.26-.26-.41-.19-.51.12-.15.48-.28.96-.44,1.43-.17.5-.42.57-.82.24-.36-.3-.64-.69-.94-1.05-.2-.24-.35-.23-.46.05-.17.42-.31.86-.47,1.28-.23.6-.52.67-.95.19-.33-.36-.62-.74-.92-1.12-.19-.25-.35-.22-.48.03-.16.32-.31.64-.46.96-.19.41-.41.46-.76.16-.29-.25-.43-.6-.62-.91-.15-.26-.17-.74-.52-.7-.37.04-.44.51-.54.85-.22.71-.17.77.5,1.05Z"/>
    <path class="cls-70" d="M84.18,64.95c-2.11,1.21-4.2,2.46-6.36,3.58-1.48.77-2.94,1.56-4.42,2.33-.28.15-.35.25-.05.45.46.31.9.65,1.35.97.85-.81,1.81-1.46,2.79-2.09,1.48-.95,3.05-1.71,4.67-2.38.91-.38,1.81-.83,2.79-1.03.08-.72-.07-1.4-.24-2.14-.21.12-.36.21-.52.3Z"/>
    <path class="cls-70" d="M87.01,62.12c2.11-1.4,4.19-2.84,6.16-4.45,1.1-.9,2.15-1.86,3.11-2.91.37-.41.38-.39-.13-.55-.38-.12-.75-.27-1.13-.4-.6-.22-.69-.14-.61.51.04.34.12.67.16,1.01.08.7-.12.87-.79.71-.36-.09-.71-.2-1.07-.29-.62-.15-.75-.03-.62.61.08.39.22.77.24,1.17.02.56-.15.71-.69.57-.47-.12-.93-.27-1.4-.4-.47-.13-.52-.1-.53.39-.02.58.05,1.17-.04,1.75-.07.46-.31.59-.72.37-.27-.15-.52-.34-.77-.53-.27-.21-.44-.2-.64.12-.46.7-.58,1.47-.56,2.28.02.01.04.03.04.05Z"/>
    <path class="cls-70" d="M97.29,53.42c.2-.34.42-.67.6-1.03.19-.36.01-.63-.41-.62-.31,0-.62.03-.93.08-.54.08-.55.1-.29.6.06.13.13.25.2.38.11.2.21.4.34.59.15.21.34.27.5,0Z"/>
    <path class="cls-70" d="M98.34,51.39c.02-.35.05-.59.05-.83q0-1.01-.98-1.16c-.11-.02-.22-.04-.34-.04-.12,0-.28-.05-.36.07-.1.14.03.27.11.38.41.57.95,1.01,1.52,1.58Z"/>
    <path class="cls-80" d="M67.5,69.53c.17-.05.32-.02.46.09-.02.17-.14.25-.28.24-.19-.01-.1-.23-.18-.33Z"/>
    <path class="cls-80" d="M86.97,62.07s.04.03.04.05c-.05.2-.18.27-.37.23,0-.03-.02-.05-.03-.08.12-.07.24-.14.36-.21Z"/>
    <path class="cls-14" d="M52.85,73.06c.35-.46.85-.54,1.34-.24.29.18.4.47.54.75.27.54.27.54.6.06.1-.14.2-.28.32-.4.42-.43.84-.44,1.25,0,.23.25.44.52.64.79.14.18.23.2.3-.04.1-.33.21-.65.42-.93.46-.62,1-.66,1.54-.11.22.22.38.52.67.72.17-.5.25-.99.55-1.41.39-.55.81-.61,1.33-.2.26.2.49.43.73.65.19.17.29.15.32-.12.04-.4.12-.79.29-1.15.32-.68.81-.85,1.46-.47.33.19.63.44.93.68.24.19.32.14.37-.15.08-.48.15-.96.37-1.4.14-.28.31-.55.68-.56.17-.05.32-.02.46.09.4.14.71.41,1.04.65.23.16.32.11.33-.16.01-.4.07-.79.17-1.18.22-.84.67-1.06,1.46-.67.33.16.64.37.96.56.21.13.31.08.3-.18,0-.34,0-.68.1-1.02.27-.92.93-1.19,1.76-.71.32.18.59.44.95.55.1-.17.08-.35.09-.51.03-.4.1-.79.27-1.16.3-.61.77-.77,1.37-.46.3.16.59.35.88.53.2.12.28.07.28-.16,0-.38,0-.77.1-1.14.24-.88.86-1.15,1.66-.71.28.15.53.37.87.48.04-.46-.03-.9.07-1.33.21-.9.9-1.26,1.75-.88.27.12.53.28.78.44.27.17.34.08.34-.19,0-.4.03-.8.17-1.18.3-.79.94-1.03,1.67-.61.28.16.54.35.87.57.03-.19.03-.32.07-.44.19-.57.39-1.13.79-1.6.43-.49.8-.54,1.35-.19.16.1.28.26.5.31-.05-.64-.18-1.26.15-1.83.28-.49.58-.65,1.13-.52.26.06.52.15.78.23.48.16.48.16.39-.32-.04-.21-.07-.42-.08-.63,0-.97.5-1.38,1.45-1.19.32.06.63.14.97.22-.05-.69-.27-1.38.22-1.93.55-.62,1.2-.2,1.84-.04-.15-.31-.29-.55-.39-.82-.22-.54.02-1.04.58-1.21.23-.07.47-.11.7-.16,0,0,0,0,0,0,.04.02.07.02.08-.03,0,0-.04-.02-.06-.03-.19-.26-.41-.51-.57-.79-.49-.82-.17-1.46.78-1.57.27-.03.54-.02.88-.03-.48-.54-.97-.96-1.53-1.3-.08.36-.13.73-.29,1.06-.73,1.54-1.73,2.9-2.93,4.11-1.58,1.6-3.37,2.97-5.18,4.3-1.28.93-2.58,1.84-3.89,2.73-1.21.82-2.41,1.64-3.66,2.4-1.55.95-3.16,1.81-4.68,2.8-.65.43-1.4.68-2.07,1.09-.58.35-1.19.66-1.79.97-1.28.67-2.59,1.28-3.88,1.92-1.09.55-2.21,1.01-3.33,1.48-1.71.72-3.45,1.34-5.26,1.77-1.69.4-3.4.71-5.14.48-.65-.08-1.26-.31-1.74-.81-.1.68-.03,1.35.11,2.09.15-.25.24-.43.36-.58Z"/>
    <path class="cls-14" d="M77.49,70.19c-.98.63-1.94,1.28-2.79,2.09.93.71,1.87,1.39,2.97,1.82.82.33,1.65.39,2.49.04.87-.36,1.72-.75,2.55-1.19.75-.39,1.3-.97,1.6-1.76.54-1.42.66-2.9.63-4.41-.98.2-1.88.65-2.79,1.03-1.62.67-3.19,1.43-4.67,2.38Z"/>
    <path class="cls-20" d="M81.93,48.64c.78-.27,1.57-.5,2.36-.76.1-.03.18-.05.26-.04-.43-.22-.84-.46-1.24-.74-.03.01-.06.02-.09.03-.87.28-1.72.59-2.55.96.24.22.39.54.4.89.28-.15.58-.24.86-.33Z"/>
    <path class="cls-20" d="M54.37,76.51c.61.11,1.21.15,1.83.13,2.6-.1,5.09-.73,7.55-1.51,2.75-.88,5.39-2.01,7.93-3.36.4-.21.65-.21,1,.09.8.69,1.66,1.3,2.52,1.89.66.45,1.34.86,2.09,1.16,1.25.5,2.47.48,3.68-.12.5-.25,1-.49,1.51-.7,1.66-.7,2.62-1.96,2.98-3.7.41-1.96.53-3.92.09-5.89-.06-.26.03-.38.23-.51.85-.53,1.69-1.05,2.52-1.6,2.7-1.8,5.33-3.7,7.67-5.98,1.14-1.11,2.13-2.33,2.81-3.78.86-1.86.6-3.9-.76-5.13-1.32-1.19-2.84-2.04-4.67-2.17-1.09-.08-2.17-.07-3.26.1.15.29.17.62,0,.93.72-.09,1.44-.19,2.17-.15,1.43-.04,2.79.18,3.97,1.07.56.33,1.05.75,1.53,1.3-.34,0-.61,0-.88.03-.94.11-1.26.75-.78,1.57.16.28.38.53.57.79.02,0,.06.02.06.03,0,.05-.04.05-.08.03-.24.05-.48.09-.7.16-.56.17-.79.67-.58,1.21.11.26.24.51.39.82-.65-.16-1.29-.58-1.84.04-.49.55-.28,1.24-.22,1.93-.34-.08-.66-.16-.97-.22-.95-.19-1.46.23-1.45,1.19,0,.21.04.43.08.63.09.48.1.48-.39.32-.26-.08-.51-.17-.78-.23-.54-.13-.85.03-1.13.52-.32.58-.2,1.19-.15,1.83-.23-.05-.35-.21-.5-.31-.55-.34-.92-.3-1.35.19-.4.46-.6,1.03-.79,1.6-.04.12-.04.25-.07.44-.34-.22-.6-.41-.87-.57-.73-.42-1.37-.19-1.67.61-.14.38-.17.78-.17,1.18,0,.28-.08.37-.34.19-.25-.16-.51-.32-.78-.44-.84-.37-1.54-.01-1.75.88-.1.43-.04.87-.07,1.33-.34-.1-.59-.32-.87-.48-.79-.44-1.42-.17-1.66.71-.1.38-.11.76-.1,1.14,0,.23-.08.28-.28.16-.29-.18-.58-.37-.88-.53-.6-.32-1.07-.15-1.37.46-.18.36-.24.76-.27,1.16-.01.17.01.34-.09.51-.36-.11-.63-.37-.95-.55-.83-.48-1.49-.21-1.76.71-.1.33-.1.68-.1,1.02,0,.25-.09.3-.3.18-.32-.19-.62-.4-.96-.56-.79-.39-1.24-.17-1.46.67-.1.39-.16.78-.17,1.18,0,.28-.11.32-.33.16-.34-.24-.65-.51-1.04-.65-.02.17-.14.25-.28.24-.19-.01-.1-.23-.18-.33-.37,0-.54.28-.68.56-.22.44-.29.92-.37,1.4-.05.29-.13.34-.37.15-.3-.24-.6-.49-.93-.68-.64-.38-1.14-.21-1.46.47-.17.37-.25.75-.29,1.15-.03.26-.13.29-.32.12-.24-.22-.48-.45-.73-.65-.52-.41-.94-.34-1.33.2-.3.41-.38.91-.55,1.41-.29-.2-.45-.49-.67-.72-.54-.55-1.08-.51-1.54.11-.21.28-.32.6-.42.93-.07.24-.16.23-.3.04-.21-.27-.41-.55-.64-.79-.41-.44-.83-.43-1.25,0-.12.12-.22.26-.32.4-.33.48-.33.48-.6-.06-.14-.28-.26-.57-.54-.75-.49-.3-.99-.22-1.34.24-.12.16-.21.34-.36.58-.14-.74-.21-1.41-.11-2.09.07-.91.29-1.78.66-2.61.5-1.23,1.37-2.18,2.31-3.08.11-.11.24-.21.35-.31.05-.05.1-.1.16-.14-.36-.06-.72-.16-1.06-.3-.63.61-1.24,1.24-1.71,1.98-1.37,2.15-1.98,4.47-1.34,7,.34,1.35,1.23,2.18,2.62,2.43ZM96.71,49.42c.08-.12.23-.07.36-.07.11,0,.23.03.34.04q.98.15.98,1.16c0,.24-.03.48-.05.83-.57-.58-1.11-1.01-1.52-1.58-.08-.11-.2-.24-.11-.38ZM96.44,52.83c-.07-.13-.13-.25-.2-.38-.25-.5-.25-.53.29-.6.31-.04.62-.07.93-.08.43,0,.6.25.41.62-.18.35-.4.69-.6,1.03-.16.27-.35.21-.5,0-.13-.18-.23-.39-.34-.59ZM84.95,66.78c.03,1.5-.09,2.98-.63,4.41-.3.8-.85,1.37-1.6,1.76-.83.43-1.69.83-2.55,1.19-.84.35-1.67.28-2.49-.04-1.1-.43-2.04-1.11-2.97-1.82-.45-.32-.89-.66-1.35-.97-.29-.2-.23-.3.05-.45,1.48-.77,2.94-1.56,4.42-2.33,2.16-1.13,4.25-2.37,6.36-3.58.16-.09.32-.18.52-.3.17.74.32,1.42.24,2.14ZM53.14,74.31c.1-.33.17-.8.54-.85.35-.04.37.44.52.7.19.32.33.66.62.91.35.3.56.25.76-.16.15-.32.3-.65.46-.96.13-.26.29-.28.48-.03.3.38.59.77.92,1.12.43.47.73.41.95-.2.16-.43.31-.86.47-1.28.11-.28.26-.29.46-.05.3.36.57.75.94,1.05.4.33.65.26.82-.24.16-.47.29-.95.44-1.43.1-.31.25-.38.51-.12.32.33.66.63,1.05.86.6.36.84.27,1-.4.09-.4.14-.81.22-1.22.1-.51.23-.56.65-.27.37.26.72.56,1.1.8.61.37.87.25,1.04-.42.12-.48.19-.98.31-1.46.1-.41.22-.45.56-.21.36.25.7.54,1.1.73.57.27.87.14.98-.48.09-.49.13-.99.18-1.48.04-.36.19-.44.5-.25.45.28.88.58,1.37.79.54.23.77.12.86-.47.07-.45.08-.91.14-1.36.07-.55.23-.62.69-.32.35.22.68.48,1.04.67.57.3.86.16.97-.47.08-.45.11-.9.18-1.35.09-.58.18-.62.67-.31.34.21.66.45,1.03.6.68.26.96.1,1.02-.63.04-.38.02-.77.05-1.15.04-.6.15-.65.66-.36.33.19.66.4,1.02.54.63.25.92.05.95-.62.01-.33,0-.66,0-.98.05-.88.2-.97.97-.56.34.18.67.38,1.02.53.57.25.79.12.86-.5.06-.51.07-1.02.15-1.53.06-.42.17-.46.53-.25.58.33,1.09.78,1.71,1.03.12-.07.24-.14.36-.21-.02-.81.1-1.58.56-2.28.2-.32.37-.33.64-.12.25.19.5.38.77.53.41.22.65.09.72-.37.09-.58.02-1.17.04-1.75.02-.49.06-.52.53-.39.47.13.93.28,1.4.4.54.14.71-.01.69-.57-.02-.4-.15-.78-.24-1.17-.13-.63,0-.76.62-.61.36.09.71.2,1.07.29.67.16.87,0,.79-.71-.04-.34-.11-.67-.16-1.01-.08-.66,0-.73.61-.51.38.13.75.29,1.13.4.51.16.5.14.13.55-.96,1.05-2.01,2.01-3.11,2.91-1.96,1.61-4.05,3.05-6.16,4.45-.05.2-.18.27-.37.23-2.94,1.92-5.99,3.63-9.07,5.3-3.21,1.74-6.44,3.42-9.76,4.93-3.27,1.48-6.68,2.54-10.24,3.03-1.31.18-2.64.26-3.92-.26-.67-.27-.72-.34-.5-1.05Z"/>
    <path class="cls-20" d="M59.83,60.38s0,.04-.02.06c-.06.2-.13.41-.21.61-.02.21.02.44.06.68.08-.12.18-.22.32-.31.68-.43,1.34-.88,2.02-1.33-.1-.13-.17-.27-.21-.42-.04-.16-.07-.32-.11-.48-.08.06-.19.13-.33.22-.5.32-1,.64-1.54.98Z"/>
    <ellipse class="cls-19" cx="72.75" cy="57.59" rx="22.28" ry="3.97" transform="translate(-19.03 43.93) rotate(-29.9)"/>
    <ellipse class="cls-24" cx="72.75" cy="57.59" rx="14.22" ry="2.54" transform="translate(-19.03 43.93) rotate(-29.9)"/>
    <path d="M69.87,53.54c4.31-2.48,8.3-4.2,11.79-5.71l.26-.11c5.85-2.52,8.92-2.44,9.04-2.44l-.04.97.02-.48-.02.48s-3.01-.06-8.63,2.36l-.26.11c-5.87,2.53-13.17,5.69-20.96,12.03-7.02,5.72-7.37,7.08-7.39,7.14,0,0,.02-.08-.03-.18l-.9.35c-.35-.9,2.24-3.61,7.7-8.06,3.24-2.64,6.4-4.74,9.4-6.46Z"/>
  </g>
  <g>
    <path d="M44.2,19.81c-.02-.1-.04-.2-.06-.31,0-.04-.01-.08-.02-.12-.03-.19,0,.07,0-.04-.02-.2-.04-.39-.05-.59-.02-.39,0-.79.03-1.18,0-.04,0-.08.01-.12.02-.2-.01.07,0-.04.02-.09.03-.18.04-.28.03-.19.07-.39.12-.58s.1-.38.16-.57c.03-.1.07-.2.1-.29.01-.04.03-.08.04-.12-.05.12.03-.06.03-.07.14-.32.09-.74-.26-.92-.3-.15-.77-.09-.92.26-.71,1.69-.91,3.51-.55,5.31.07.35.5.58.83.47.37-.12.55-.46.47-.83h0Z"/>
    <path d="M42.77,22.03c-.86-1.58-1.73-3.16-2.59-4.74-.42-.76-1.58-.08-1.16.68.86,1.58,1.73,3.16,2.59,4.74.42.76,1.58.08,1.16-.68h0Z"/>
  </g>
  <path class="cls-85" d="M5.59,56.03c-1.22.19-2.13,1.66-1.22,2.74.53.63,5.45-.34,3.93-1.97-.79-.2-1.92-.89-2.71-.77Z"/>
  <path class="cls-71" d="M54.18,4.86c.02,1.05-.17,2.35-.66,3.28-.09.17-.79.42-.66.98-2.4-.89-1.17-2.38-1.66-4.37.96-.72,2.29-.93,2.97.11Z"/>
  <path class="cls-38" d="M4.37,22.22c.15-.02.39-.5,1.06-.29.36.11,1.89,1.59,2.54,1.93.12.9-.12,1.61-.98,1.97-1.2-.46-3.01-.72-3.28-2.29.17-.2.26-1.04.66-1.31Z"/>
  <path class="cls-42" d="M20.43,5.18c.41,1.06-.19,2.36.66,3.28-.68,1.6-.54,1.02-1.97,1.31-.29-.68-.79-1.62-.98-2.29-.63-2.22.13-2.37,2.29-2.29Z"/>
  <path class="cls-83" d="M5.59,56.03c.79-.12,1.92.57,2.71.77,1.52,1.64-3.4,2.6-3.93,1.97-.91-1.08,0-2.55,1.22-2.74Z"/>
  <path class="cls-10" d="M34.85,12.06c.77.98-.63,2.41.33,3.28-.06.28-.43,1.01-.66,1.15-.41.27-.87.14-1.31.16l-.66-3.6c.18-.27.07-.87.66-1.17s1.08.11,1.64.18Z"/>
  <path class="cls-26" d="M82.36,29.43c-.52.28-1.12.76-1.64.98-.33.14-2.19.73-2.29.66-.24-.65-.25-1.29-.33-1.97.88-.05,1.64-1.03,2.29-1.31,1.61-.7,2.57.01,1.97,1.64Z"/>
  <path class="cls-34" d="M68.27,71.37c.72.94,1.62,1.66,2.29,2.62-.39.24-.82,1.04-1.31,1.31-.62-.19-2.51-1.34-2.62-1.97-.2-1.1.55-1.98,1.64-1.97Z"/>
  <path class="cls-36" d="M10.93,42.21c-1.05.73-1.89,0-2.9-.37-.42-1.24.44-1.38.94-1.93l2.62,1.47c-.29.14-.5.72-.65.82Z"/>
  <path class="cls-77" d="M55.16,81.53c2.75,2.68,3.27,6.24,1.03,9.45.14-.17,0-.61-.26-.65,0,0,.11.05.11.05-.25-.11-.23-.04-.27-.05.21-.13.53-.36.71-.6,1.29-1.79,1.02-4.35.42-6.39-.25-.79-.74-1.91-1.73-1.79h0ZM55.16,81.53c1.92-.52,2.89,2.98,3.07,4.41.26,1.93-.13,4.48-2.12,5.41-.16.03-.26.11-.62-.05l.11.05c-.38-.08-.54-.65-.33-.91,0,0,.11-.16.11-.16,1.36-1.87,1.77-4.34.96-6.52-.27-.75-.89-1.41-1.17-2.22h0Z"/>
  <path class="cls-77" d="M59.75,82.84c-.16.02-.32.04-.47.08-.09,0-.12.09-.07-.02.32.18.64.53.86.84.38.5.83,1.06.99,1.8.21.99.27,2.14-.04,3.06-.07.29-.05.46,0,.48l-.27-.2c-.17-.04-.23.06-.15-.02.3-.37.49-.97.62-1.44-.02-.39-.1-.87-.11-1.28,0,0-.06-.9-.06-.9-.25-.83-.72-1.71-1.3-2.4h0ZM59.75,82.84c.88.5,1.52,1.28,1.98,2.19.16.81.41,1.69.47,2.52-.17.97-.63,2.77-1.97,2.31-.41-.47-.35-1.18-.24-1.52.32-.91.28-1.74.24-2.64-.06-.67-.51-1.43-.82-2.1-.1-.22-.29-.35-.42-.6-.06-.41.55-.17.76-.15h0Z"/>
  <g>
    <path class="cls-77" d="M46.79,93.25c-1.03,0-2.03-.16-2.9-.42-.38-.12-.75-.24-1.12-.36-.37-.12-.73-.24-1.12-.36-1.75-.53-5.7-3.86-6.67-5.41-1.56-2.49-1.87-5.17-2.18-7.77,0,0,0-.01,0-.02-.18,0-.36,0-.56-.04-.02.06-.04.11-.06.17-.24.61-.4,1.05-.53,1.6.84.77,1.56,2.15.8,4.56-1.08,3.44-4.01,5.07-7.46,4.13-1.82-.49-2.56-1.01-3.85-2.3-.05-.05-.11-.09-.17-.13-.23-.16-.57-.41-.92-.92-2.12-3.12-1.95-5.07-1.72-7.55.05-.57.11-1.18.14-1.87.11-2.37,1.16-4.96,2.77-6.82.15-.38.43-.67.79-.82-.13-.51-.27-1.04-.29-1.56-.12-2.44.1-4.75.32-7l.02-.25c.21-2.17.49-3.42.92-5.31l.09-.41c.85-3.82,1.84-6.37,2.98-9.32.32-.83.65-1.69,1.01-2.64.16-.43.28-.77.38-1.05.36-.99.5-1.41,1.31-3.01.16-.32.32-.64.47-.96.27-.56.55-1.12.85-1.69.31-.59.59-1.14.85-1.66.71-1.41,1.38-2.75,2.51-4.37.09-.14.25-.44.39-.7.48-.92.84-1.56,1.38-1.94.33-.23.66-.35.96-.42,0,0,0-.02.01-.03.91-1.94,5.64-4.73,7.51-4.99.63-.09,1.08.01,1.42.2.65-.54,1.01-.83,1.51-.89,1.23-.14,3.28.3,4.82.7.58.08,1.16.32,1.68.52.17.07.33.13.48.19.27.1.48.21.62.3.04.02.08.05.13.07.73.33,1,.51,1.37.77.11.08.24.18.43.3.24.15.48.28.72.41.62.34,1.32.73,1.98,1.39.72.72,1.01,1.32,1.27,1.86.11.23.22.45.36.68,3.56,5.68,2.74,9.32,1.13,14.81-.6,2.02-1.2,3.27-1.9,4.72-.25.51-.51,1.05-.79,1.67-.12.26-.24.73-.36,1.19-.09.32-.17.66-.28.99,2.58-1.51,3.88-3.22,5.71-5.74,0-.02,0-.03,0-.05-.03-.45-.05-.87.08-1.27.18-.53.62-.89,1.03-1.13.32-1.45,1.41-3.09,4.42-3.96.1-.03.19-.07.29-.11.46-.2,1.22-.52,2.22-.23l.77.22.09.5c.37.02.78.14,1.23.4,1.68.96,2.75,2.76,2.94,4.94.55,6.48-7.24,14.83-12.76,17.3-3.5,1.56-6.86,2.16-11.23,1.94-.2.83-.45,1.83-1,2.68l.11.03-3.88,12.3-.4-.27c.09.24.16.47.23.69.06.19.12.37.17.54,1.58-.02,2.93.56,3.88,1.64,1.09,1.24,1.56,3.09,1.27,5.07l-.22,1.52-.23-.08c0,1.23-.45,2.31-1.31,3.15-1.26,1.23-3.12,1.71-4.92,1.71ZM34.97,75.64l.16,1.12c.09.63.16,1.25.24,1.87.28,2.42.55,4.71,1.8,6.71.71,1.13,4.19,3.99,5.24,4.32.4.12.78.25,1.17.38.35.12.7.23,1.06.34,1.96.6,4.27.31,5.27-.67.2-.19.78-.76.43-2.15l-1.62-3.23-.64-.4c-1.61-1.01-2.04-2.36-2.38-3.44-.08-.24-.15-.47-.23-.69-.18-.1-.4-.26-.58-.52l-.33-.52,1.39-4.14.95.64,2.02-6.41-.27-.07-.04-2.28.73-.36c.5-.25.77-.77,1-1.52l-.82-.33-2.91-2.83,3.34.13c.15,0,.31,0,.46,0,.28-.01.59-.02.93,0,4.89.48,8.35.02,11.93-1.57,4.64-2.07,11.67-9.66,11.24-14.73h0c-.07-.78-.37-2.19-1.65-2.92-.1-.06-.14-.07-.14-.07,0,0-.1.03-.37.14l-1.48.6-.23-1.35c-.13.05-.26.1-.39.14-2.59.74-2.65,1.97-2.68,2.44l-.05.94-.91.24s-.03.01-.05.02c0,.04,0,.07,0,.1.01.24.03.48.02.66l-.02.39-.29.4c-2.02,2.78-3.62,4.97-6.9,6.83-.44.25-.94.5-1.43.71-1.76.77-2.68,1.03-4.52,1.39l-4.68.93,4.05-3.56-.75-1.12,1.47-.32c.31-.28.67-.42,1.08-.44.38-.02.7.06.94.14.22-.44.42-1.19.56-1.72.16-.59.3-1.14.51-1.59.29-.64.56-1.2.81-1.72.68-1.4,1.21-2.51,1.75-4.34,1.66-5.61,2.01-8.16-.84-12.72-.21-.34-.36-.64-.49-.91-.22-.45-.37-.75-.79-1.18-.4-.4-.86-.65-1.39-.95-.29-.16-.58-.32-.86-.5-.25-.16-.41-.28-.56-.38-.24-.17-.38-.27-.92-.51-.12-.05-.23-.12-.35-.18-.06-.04-.13-.08-.21-.11-.18-.06-.37-.14-.58-.22-.37-.15-.84-.34-1.1-.36l-.19-.04c-1.58-.42-2.98-.67-3.71-.67-.13.1-.3.24-.42.34-.37.31-.75.62-1.09.83l-1.12.69-.66-1.13c-1.34.32-4.39,2.25-5.2,3.26.17.77-.28,1.26-.6,1.44-.38.21-.75.22-1.02.22-.13,0-.31,0-.36.04-.1.11-.41.7-.57,1.02-.19.37-.37.71-.56.98-1.02,1.47-1.62,2.67-2.32,4.05-.27.54-.56,1.11-.88,1.71-.29.55-.55,1.08-.81,1.61-.16.33-.32.65-.49.98-.74,1.46-.85,1.78-1.19,2.72-.1.29-.23.64-.39,1.08-.36.96-.7,1.84-1.02,2.67-1.15,2.97-2.05,5.32-2.87,8.96l-.09.41c-.42,1.86-.67,2.99-.87,5l-.02.25c-.21,2.15-.43,4.37-.31,6.62.01.26.12.67.22,1.06.3,1.16.79,3.09-.93,3.92l-1.42.68c-.66,1.19-1.07,2.55-1.13,3.79-.03.74-.09,1.4-.15,1.98-.2,2.26-.32,3.51,1.29,5.87.09.13.14.17.29.28.13.09.3.22.48.4,1,1,1.37,1.27,2.7,1.63,2.13.58,3.67-.28,4.34-2.42.51-1.62-.06-1.92-.36-2.09l-.79-.42.12-.89c.14-.99.34-1.66.6-2.35-1-.49-2.1-1.34-2.24-2.57l-.25-2.19,5.36,2.29c.28-.27.71-.53,1.39-.54l1.13-.02ZM50.61,84.07l.26.69c-.06-.25-.15-.48-.26-.69ZM47.33,23.35h0Z"/>
    <path class="cls-77" d="M23.58,54.68c-.12,0-.24-.01-.37-.04-1.39-.32-4.31-3.52-4.7-4.89-.01-.04-.02-.08-.03-.12l-.49-.26-.18-.38c-.94-1.94-1.7-3.6-2.23-5.82-.84-3.46-.93-5.75-.34-9.04.44-2.47,1.68-6.98,5.12-9.35,1.76-1.22,3.68-1.52,5.71-.92.15.03.3.08.44.14.3.11.64.29.85.43.42.27.62.5.8.73.03.04.07.09.11.14l.04.02c.21.15.59.42.89.99.26.51.3.96.33,1.29,0,.01,0,.03,0,.04.18.26.39.67.4,1.26.01,1.21-.26,2.28-.78,3.13.31.17.74.46.97,1.04l.08.27c.33,1.96-1.87,3.52-3.19,4.45-.03.02-.06.04-.09.06,0,.1,0,.21,0,.3,0,.41.02,1.3-.36,2.01,0,.02.01.04.02.06.1.35.08.68.06.95,0,.12-.02.3,0,.36.02.05.13.2.22.32.23.3.53.72.67,1.29.21.91-.12,2.85-2.44,9.35l-.08.23s0,.23,0,.35c0,.11,0,.22,0,.32l-.02.46-.31.35c-.28.31-.67.48-1.09.48ZM21.56,49.91c.35.44.8.94,1.23,1.36,2.08-5.87,2.24-7.27,2.22-7.61,0,0-.13-.17-.22-.29-.19-.25-.42-.56-.57-.98-.12-.33-.16-.66-.16-.93l-.65-.07v-2.72s.94-.03.94-.03c0-.15,0-.33,0-.46,0-.47-.01-.96.14-1.42.15-.45.44-.66,1.03-1.07,1.05-.74,1.6-1.24,1.88-1.56-.13,0-.3.03-.54.08-.25.04-.51.09-.76.11l-3.49.27,3.04-3.01.31-.09c1.24-.36,1.37-1.94,1.38-2.45-.12-.15-.25-.35-.31-.64-.04-.19-.06-.38-.08-.57-.02-.18-.03-.28-.05-.33-.03-.04-.06-.06-.09-.07-.11-.08-.29-.2-.46-.39-.1-.11-.17-.2-.24-.28q-.08-.1-.16-.15c-.12-.07-.3-.17-.38-.2l-.19-.05c-1.32-.41-2.42-.24-3.57.55-2.67,1.85-3.69,5.61-4.05,7.69-.52,2.98-.45,4.84.31,7.99.39,1.6.9,2.87,1.56,4.28l.41-.02c.91-.04,1.65.35,1.96,1.05.29.65.15,1.41-.37,1.95-.03.03-.05.05-.08.08Z"/>
  </g>
  <g>
    <path class="cls-77" d="M45,23.53c-.31-.54-.4-.75-1.1-.66-1.59.22-5.85,2.82-6.53,4.26-.12.25.11.62.08.63-.24.13-.9-.09-1.49.32-.5.35-1.06,1.75-1.45,2.32-1.48,2.13-2.12,3.72-3.28,5.9-.47.89-.86,1.73-1.31,2.62-1,1.99-.92,2.01-1.64,3.93-1.63,4.39-2.87,7.03-3.93,11.8-.48,2.14-.77,3.33-.98,5.57s-.46,4.63-.34,7.06c.06,1.26,1.14,3.22.01,3.76l-.17-.99c-.54-.06-.41.24-.49.33-1.56,1.71-2.53,4.14-2.62,6.23-.16,3.6-.96,5.22,1.36,8.64.34.5.63.57.93.86,1.12,1.12,1.67,1.53,3.28,1.97,2.81.76,5.03-.52,5.9-3.28.41-1.32.51-2.82-.98-3.6.19-1.36.51-2,.98-3.27-.82-.19-2.51-.96-2.62-1.97l3.82,1.63c.98.23.49-.63,1.42-.65.45,3.14.48,6.29,2.22,9.08.84,1.33,4.52,4.43,5.95,4.86.77.23,1.47.48,2.23.72,3.41,1.05,8.52-.09,7.29-4.5l-.33-.65.98.32c.4-2.77-.93-5.29-3.93-5.24l.49,1.31c-1.64-1.02-1.62-2.42-2.23-3.84-.09-.2-.48-.29-.56-.42l.66-1.97.98.65,2.95-9.35-.64-.16v-.48c1.3-.65,1.63-2.11,1.96-3.44l-1.64-.66-.33-.32c.43.02.88-.05,1.31,0,4.52.44,8.35.21,12.57-1.68,5.02-2.24,12.49-10.2,12-16.02-.14-1.61-.86-3.11-2.29-3.93-.62-.35-.98-.26-1.64,0l-.17-1.01c-.76-.22-1.25.19-1.79.35-1.74.5-3.5,1.49-3.6,3.6-.29.08-.89.37-.98.66-.09.25.02.93,0,1.31-2.03,2.79-3.49,4.81-6.55,6.55-.42.24-.87.46-1.31.66-1.66.73-2.48.96-4.26,1.31l1.31-1.15-.33-.49s.17-.32.49-.33c.63-.03,1.1.58,1.63.02.81-.86,1.04-2.97,1.48-3.95,1.07-2.36,1.85-3.6,2.62-6.23,1.65-5.59,2.22-8.64-.98-13.76-.53-.84-.6-1.44-1.46-2.31-.77-.77-1.64-1.09-2.47-1.62-.69-.44-.67-.55-1.64-.98-.21-.09-.38-.23-.66-.33-.58-.21-1.36-.59-1.97-.66-1.13-.3-3.33-.81-4.43-.69-.23.03-1.23,1-1.8,1.34ZM21.08,25.83c-2.69,1.86-4.04,5.4-4.59,8.52s-.45,5.31.33,8.52c.51,2.09,1.21,3.63,2.14,5.56l.64.34c.4.15.37-.15.49-.33.05-.08-.05-.27,0-.33,1.34-.06.73,1.41-.33.98-.54.54,3.44,4.8,3.93,4.26.01-.34-.03-.74.09-1.06.57-1.6,2.76-7.66,2.48-8.86-.13-.57-.65-.94-.84-1.47-.18-.49.01-1.07-.08-1.38-.05-.17-.45-.31-.65-.34v-.31c1.41-.04.74-1.92,1.02-2.75.08-.24,3.47-2.09,3.22-3.62-.12-.3-.38-.39-.64-.52-.77-.4-1.51-.06-2.29,0l.33-.32c1.66-.49,2.33-2.19,2.31-3.8,0-.49-.32-.67-.34-.79-.09-.41-.02-.8-.25-1.23-.24-.46-.52-.5-.74-.74-.24-.27-.27-.41-.66-.66-.18-.11-.46-.26-.66-.33-1.75-.61-3.33-.44-4.91.66Z"/>
    <path class="cls-15" d="M66.3,17.63c.3-.34.93-.93,1.31-1.31s.23-.7,1.14-.69c3.31.04-.39,4.29-1.9,3.92-.79-.2-1.21-1.19-.56-1.92Z"/>
    <path class="cls-76" d="M55.16,81.53c.62-.27,1.36.5,1.64.98,1.32,2.28,1.83,7.48-1.31,8.52,1.65-2.16,2.19-4.62,1.15-7.2-.34-.84-1.09-1.51-1.47-2.3Z"/>
    <path class="cls-4" d="M59.75,82.84c.56.36,1.47,1.74,1.64,2.29.03.11.33,2.18.33,2.29-.02.34-.55,2.17-1.14,1.97-.38-.53.16-1.32.16-1.97,0-2.12-.05-2.22-1.14-3.94-.29-.46-1.05-.69.16-.65Z"/>
    <path class="cls-8" d="M51.23,22.88c.61.06,1.38.45,1.97.66l-2.29,7.21c-.36.74-.58,1.53-.98,2.29-.08.15-.84.27-.68,1.13.86.24.81.92,1,1.17-1.21.03-2.82,3.66-2.6,4.39l3.58,1.51c-.49,1-.52,1.59-1.31,2.62-.92-2.55-4.77-5.44-7.37-3.6-2.37,1.67.93.95,1.64.95,2.1,0,3.59,1.93,4.42,3.63.21.43.36.82.33,1.31-1.44-.05-2.94.09-2.95,1.97h-.33c-.01-2.98-1.47-1.47-3.11-1.31-3.47.34-6.59-1.09-8.7-3.78-.41-.28-.69.1-.97.18-.11.03-.24-.04-.33,0,.09-.22.25-.43.33-.66l1.31-.49c-1.35-1.03-.03-2.71.66-3.77,1.25-.13,2.11-.1,3.1,1,.53.59.31,1.93,1.51,1.09.65-2.84-2.82-4.23-5.27-3.73h-.65c.38-.49.43-1.12.65-1.64.3-.68.67-1.08.98-1.64,1.72.4.56.83.82,1.96,1.13-1.02,1.52-2.58,2.13-3.93.22-.05,1.63-.73,1.65-.83l-.33-.99c-.11-.07-1.12.12-1.31.18l-1.31-.66c2.93-3.02,3.04-3.04,6.55-4.59-.13.18-.19.52-.33.66-1.03,1.04-3.64,1.88-3.6,3.6,1.3-1.13,2.52-2.28,3.93-3.28,1.1-.77,1.08-.8,2.29-1.31-1.27,1.71-3.29,2.73-4.59,4.42-.33.44-1.16,1.55-.82,2.13.96-.89,1.55-2.21,2.45-3.12,1.77-1.8,2.9-2.06,4.83-3.03.85-.43,1.9-1.17,2.71-1.71.32-.01.67-.03.98,0Z"/>
    <path class="cls-49" d="M69.91,40.57c.55-.16,1.03-.57,1.79-.35l.17,1.01c.66-.27,1.02-.36,1.64,0v2.95c-.85-.55-2.61-.04-2.63-1.31-2.35,1.88.08,2.66,1.97,2.95.23.7-.53.77-.66.98-1.08,1.9-1.64,3.87-3.14,5.87-1.11,1.48-3.08,3.68-4.4,4.61-.54.39-1.12.77-1.73,1.06-2.13,1.02-4.4,1.77-6.79,1.89-2.17.11-4.42.09-6.55-.33-.39-.45,1.96-4.96,2.95-5.4.35-.16.6.17.66.16,1.78-.35,2.6-.58,4.26-1.31h1.64c-.34,2.53,1.72-.44,2.29,0l.16.98c.22-.51,2.04-1.24,2.1-1.35.23-.4-.45-1.1-.15-1.59.24-.39,2.44-1.72,2.95-2.32.3-.35,1.72-2.81,1.78-3.17.15-1.07-.86-1.61-1.11-.39l-1.79-.68c.09-.28.69-.58.98-.66.02,0,.15.32.3.33l1.18-2.29.65.65c.06-.37,3.46-2.13,1.48-2.29ZM60.07,55.32c-2.97.96-5.27,1.96-8.52,1.8,1.95,1.12,5.83-.14,7.8-1.06.46-.21.9.2.72-.74Z"/>
    <path class="cls-41" d="M30.59,44.18c-1.13,3.24-2.88,6.36-3.28,9.83,0,.05-.27.2-.28.48-.04,2.28.55,2.79,2.57,3.46-.12.44-.18,1.27-.33,1.97l-1.57.75c.28,1.32,1.09,2.44,1.57.56h.33c-.46,2.19-1.14,4.66-1.31,6.88-.84-.59-.72-2.32-1.96-2.29v4.26c-.02-.15-.31-.51-.35-1.11-.14-1.96.15-4.12.03-6.1l.66.16-.34-3.76c-.53.06-.6,1.38-.65,1.8-.26,2.26-.55,5.64-.33,7.86.12,1.25,1.08,5.43,1.96,6.06.13.09.27.31.33.33-1.94,1.86-2.8,5.9-1.31,8.19-.07.16.15.69-.05.91-.09.1-2.41,1.02-2.58.91-1.08-1.9-1.57-3.6-1.63-5.75-.04-1.28,0-2.23.28-3.49.37-1.64,3.13-5.1.05-4.7.14-.26.31-.5.33-.81l-.33-.17c.08-.09-.05-.39.49-.33l.17.99c1.12-.54.05-2.5-.01-3.76-.12-2.43.12-4.75.34-7.06l1.3.5c-.65-1.86-.05-4.46.34-6.39.77-3.83,2.22-7.34,3.93-10.81.59.46.86.61,1.64.66Z"/>
    <path class="cls-66" d="M26,25.17c-1.02-.55-4.5,1.97-3.93,2.62.39.45,1.24-1.42,2.21-1.59.72-.12,1.35.26,2.05.28-.49,1.58-1.18,2.74-1.64,4.26-.23.43-.43.88-.66,1.31-2.11,4.02-2.58,7.03-1.22,11.54.75,2.49,2.23,2.78.56,5.83-.21.16-2.04-1.91-2.29-2.29-1.46-2.18-2.52-5.59-2.62-8.19-2.09.53-.38,1.04-.33,1.21.2.74.38,2.41.54,3.34s.26.81-.53.36c-.25-.63-.4-.78-.66-1.64-.62-2.09-.99-4.04-.98-6.23.5-2.52,1.56-4.76,2.56-7.1l2.02-3.06c1.58-1.09,3.17-1.26,4.91-.66ZM18.46,38.28l1.64-7.53c-.49.07-.73,1.12-.9,1.56-.71,1.84-1.07,3.71-1.29,5.66-.07.6.11.34.55.32Z"/>
    <path class="cls-54" d="M51.88,52.7v.98c.08.09,1.94-.58,2.29-.65l.33.49-1.31,1.15c-.06.01-.31-.31-.66-.16-.99.44-3.34,4.95-2.95,5.4,2.13.42,4.38.44,6.55.33l-4.59.33,1.31.98h-1.8s.16,1.31.16,1.31c-.43-.04-.88.02-1.31,0l.33.32c-1.46,2.95-2.82,6.91-3.46,10.14-.1.51.25,1.09.14,1.44-.16.53-1.03.54-1.22,1.09-.26.77-.15,2.07.28,2.74.08.12.47.21.56.42.61,1.42.59,2.82,2.23,3.84l-.49-1.31c3-.05,4.33,2.47,3.93,5.24l-.98-.32.33.65c-.02.42-.52.49-.66.66.16-.81-.37-.71-.9-.88-1.88-.61-4.06-.88-5.32-2.72-.09-.14-.82-1.95-.89-2.22-1.99-7.21,3.53-19.51,6.46-26.29.36-.83,1.22-1.98,1.64-2.95ZM44.35,77.27c-.65,1.18.24,6.57,1.46,6.75l1.49-.37c1.31-.89-1.52-1.56-1.8-2.12-.64-1.26.73-4.08-1.14-4.27Z"/>
    <path class="cls-22" d="M75.8,45.16c.49,5.82-6.98,13.77-12,16.02-4.22,1.89-8.06,2.12-12.57,1.68l-.16-1.31h1.8s-1.31-.98-1.31-.98l4.59-.33c2.39-.12,4.66-.87,6.79-1.89.61-.29,1.18-.67,1.73-1.06,1.05-.08.7.21.11.6-2.57,1.71-5.6,2.51-8.63,3,.02.56-.22.69.41.58,2.41-.42,4.68-.84,6.9-1.95,2.94-1.47,4.69-3.15,6.78-5.51,2.97-3.37,3.43-4.19,4.76-8.51.23-.76.05-.84.81-.33Z"/>
    <path class="cls-2" d="M60.4,42.54l-.99-.98c-.09-.09-.4.17-.49.32-.71,1.19-1.89,4.44-2.45,5.9-.39,1.03-.28,1.96-.96,2.79l-2.31-.5c1.58-3.6,4.81-11.43,5.24-15.07-.03.25.31.54.33.66.06.4-.05.89,0,1.31l1.25-.38.39-2.42-.99-5.39c3.21,5.12,2.63,8.17.98,13.76Z"/>
    <path class="cls-21" d="M34.19,76.94c1.79.63.49,5.18.99,6.88.72-.29.41-1.31,1.63-.98.07,1.84.86,2.71,1.97,3.93,1.27,1.4,3.79,2.78,5.63,3.38.62.21,1.26.27,1.91.22l-4.57-2.14c-.77-.54-.95-1.37-1.32-2.12h.33c1.36,2.13,3.67,3.04,6.1,3.23s2.56.24,4.05-1.59c.13-.17.64-.23.66-.66,1.23,4.42-3.87,5.55-7.29,4.5-.76-.23-1.46-.48-2.23-.72-1.43-.44-5.12-3.53-5.95-4.86-1.75-2.79-1.77-5.94-2.22-9.08.11,0,.26-.03.33,0Z"/>
    <path class="cls-32" d="M28.62,75.96c.11,1.01,1.8,1.78,2.62,1.97-.47,1.27-.79,1.91-.98,3.27-.01.08-.35.22-.28.72.14.97,1.41,1.8,1.26,2.88-.86,2.75-3.08,4.04-5.9,3.28l1.61-1.02-.63-1.27c2.53.76,1.85-.23,1.64-1.97-.16-1.26-1.02-2.61-1-2.76.08-.46.53-.85.64-1.36.16-.76.35-3.66,1.01-3.74Z"/>
    <path class="cls-11" d="M22.39,71.37c3.08-.4.32,3.06-.05,4.7-.28,1.26-.31,2.21-.28,3.49-.81,1.17-.11,2.96.27,4.16s2.25,2.76-.27,2.4c-.3-.3-.59-.36-.93-.86-2.32-3.41-1.53-5.04-1.36-8.64.83-1.78,1.71-3.51,2.62-5.24Z"/>
    <path class="cls-43" d="M75.8,45.16c-.76-.5-.57-.43-.81.33-1.33,4.33-1.79,5.14-4.76,8.51l-1.64.17c1.14-2.42,4.41-4.44,3.6-7.37.12-.21.89-.28.66-.98-1.89-.29-4.33-1.07-1.97-2.95.01,1.27,1.78.76,2.62,1.31v-2.95c1.44.82,2.16,2.33,2.3,3.93Z"/>
    <path class="cls-46" d="M23.38,35c-.46,1.97-.92,3.83-.65,5.9l.98-.66c-1,2.14-.08,4.56,1.48,6.22l.49-.82c-.39-.25-.69-.22-.85-.78-.17-.6-.44-2.94-.47-3.64l.98-.66c.09.32-.1.9.08,1.38.2.53.71.9.84,1.47.28,1.2-1.91,7.26-2.48,8.86-.11.32-.07.72-.09,1.06-.49.55-4.47-3.72-3.93-4.26,1.06.42,1.67-1.04.33-.98.31-.34.73-.59.98-.98.25.38,2.08,2.45,2.29,2.29,1.68-3.04.19-3.34-.56-5.83-1.37-4.51-.9-7.52,1.22-11.54-.15.99-.43,1.97-.66,2.95Z"/>
    <path class="cls-48" d="M50.25,63.18l1.64.66c-.32,1.33-.66,2.79-1.97,3.44v.48s.65.16.65.16l-2.95,9.35-.98-.65-.66,1.97c-.42-.67-.54-1.97-.28-2.74.19-.55,1.06-.56,1.22-1.09.11-.35-.25-.93-.14-1.44.64-3.23,2-7.19,3.46-10.14Z"/>
    <path class="cls-3" d="M65.32,44.83l1.79.68c.25-1.22,1.26-.68,1.11.39-.05.36-1.47,2.81-1.78,3.17-.51.59-2.71,1.93-2.95,2.32-.3.49.38,1.19.15,1.59-.06.11-1.88.84-2.1,1.35l-.16-.98c-.57-.45-2.63,2.53-2.29,0h-1.64c.44-.19.9-.42,1.31-.66.47.56,2.64-.84,2.97-1.13.6-.51,3.75-4.43,3.84-5,.04-.26-.26-.4-.26-.42.02-.38-.09-1.06,0-1.31Z"/>
    <path class="cls-30" d="M28.29,28.12c-1.43.03-.62,1.09-.87,1.89-.29.94-.93,1.72-1.1,2.7l-.33.32c.78-.06,1.52-.39,2.29,0-1.07.98-1.46,1.84-2.95,2.29-.81.25-1.3.59-1.97-.33.23-.98.5-1.96.66-2.95.23-.43.42-.88.66-1.31.79-1.46,2.04-2.9,2.62-4.59.21.24.5.28.74.74.22.43.16.82.25,1.23Z"/>
    <path class="cls-63" d="M32.88,42.54c-.08.23-.24.43-.33.66-.39.17-1.05.65-1.31.98-.22,0-.44.01-.66,0-.78-.04-1.05-.19-1.64-.66-.17-.13-.29-.59-.66-.66.71-1.92.64-1.94,1.64-3.93.51-.42.85-.07,1.3.15,1.91.89,2.42,1.26,1.64,3.46Z"/>
    <path class="cls-13" d="M30.26,75.63c.5.15.91.21,1.31.33.08.02.31.42.62.51.67.19,1.55-.05,2,.47-.07-.03-.22,0-.33,0-.94.02-.45.87-1.42.65l-3.82-1.63c-.66.08-.85,2.97-1.01,3.74-.11.52-.56.9-.64,1.36-.03.15.84,1.5,1,2.76l-1.15-.98c-.06-.03-.44.55-.49.65-1.49-2.29-.63-6.33,1.31-8.19.55.17,1.85.1,2.62.33Z"/>
    <path class="cls-2" d="M22.07,79.56c.06,2.15.55,3.85,1.63,5.75.17.11,2.48-.81,2.58-.91.21-.22-.02-.76.05-.91.05-.1.43-.69.49-.65l1.15.98c.22,1.74.89,2.73-1.64,1.97l.63,1.27-1.61,1.02c-1.61-.44-2.16-.85-3.28-1.97,2.52.37.63-1.24.27-2.4s-1.08-2.99-.27-4.16Z"/>
    <path class="cls-25" d="M57.78,48.76c-.44.98-.67,3.09-1.48,3.95-.53.57-1.01-.05-1.63-.02-.32.02-.44.32-.49.33-.35.08-2.21.75-2.29.65v-.98c.42-.98.95-1.82,1.31-2.62l2.31.5c.68-.83.57-1.77.96-2.79l1.31.98Z"/>
    <path class="cls-1" d="M55.49,24.84l-.28.2c-.06.23.27.39.28.45.32,2.91.41,4.79-.35,7.68-1.14,4.33-3.94,8.62-5.22,12.96-.23-.06-.68,0-.98,0,.04-.49-.12-.88-.33-1.31.78,0,.94-.49,1.31-.98.79-1.03.82-1.62,1.31-2.62,2.45-5.06,5.76-12.01,2.62-17.37.97.43.95.55,1.64.98Z"/>
    <path class="cls-72" d="M59.42,28.78l.99,5.39-.39,2.42-1.25.38c-.05-.42.06-.91,0-1.31.29-2.95.52-5.44-.8-8.21-.15-.31-.37-1.07-.84-.64-.34-.54-.96-1.33-1.64-1.31,0-.07-.34-.22-.28-.45l.28-.2c.83.53,1.71.85,2.47,1.62.86.87.93,1.47,1.46,2.31Z"/>
    <path class="cls-16" d="M34.52,30.41c.39-.57.95-1.97,1.45-2.32.59-.41,1.25-.19,1.49-.32.03-.02-.2-.38-.08-.63.68-1.44,4.93-4.04,6.53-4.26.7-.1.79.12,1.1.66-.5.31-1.12.76-1.64.98-3.51,1.55-3.63,1.57-6.55,4.59-.3.31-.77.74-.98.98s-.72.43-.98.66l-.33-.33Z"/>
    <path class="cls-55" d="M34.19,35c-.23.51-.27,1.15-.65,1.64h.65c-.68.14-1.95,1.09-1.64,1.97.79.05,1.52-.25,2.29-.33-.69,1.06-2,2.74-.66,3.77l-1.31.49c.77-2.19.27-2.56-1.64-3.46-.46-.21-.8-.57-1.3-.15.45-.89.84-1.73,1.31-2.62-.06.19.19.33.33.33,2.12-.03,1.53-1.07,2.29-2.62l.33.98Z"/>
    <path class="cls-45" d="M56.47,47.78c.56-1.46,1.75-4.71,2.45-5.9.09-.15.4-.42.49-.32l.99.98c-.77,2.62-1.55,3.87-2.62,6.23l-1.31-.98Z"/>
    <path class="cls-68" d="M28.29,33.04c.25.13.52.22.64.52.26,1.54-3.14,3.39-3.22,3.62-.28.83.39,2.71-1.02,2.75v.31c.21.02.6.16.65.34l-.98.66c-.1-2.23.03-3.86.98-5.9,1.49-.46,1.88-1.31,2.95-2.29Z"/>
    <path class="cls-81" d="M28.95,43.52c-1.71,3.47-3.16,6.99-3.93,10.81l-.66.33c1.07-4.76,2.3-7.41,3.93-11.8.37.07.49.53.66.66Z"/>
    <path class="cls-53" d="M18.13,43.85c.79.45.69.56.53-.36s-.33-2.6-.54-3.34c-.04-.16-1.75-.67.33-1.21.11,2.6,1.16,6.01,2.62,8.19-.26.39-.67.65-.98.98-.05.06.05.25,0,.33-1.44-.92-.62-1.22-.87-2.24-.11-.44-.81-1.64-1.1-2.35Z"/>
    <path class="cls-56" d="M51.23,22.88c-.31-.03-.67-.01-.98,0-1.57.05-3.15.7-4.59,1.31-1.21.52-1.19.54-2.29,1.31l-.33-.33c.13-.13.2-.47.33-.66.51-.23,1.14-.67,1.64-.98.57-.35,1.57-1.32,1.8-1.34,1.1-.12,3.29.39,4.43.69Z"/>
    <path class="cls-79" d="M16.5,35.98c0-.55,0-1.09,0-1.64.55-3.11,1.89-6.66,4.59-8.52l-2.02,3.06c-1.01,2.34-2.06,4.58-2.56,7.1Z"/>
    <path class="cls-52" d="M25.02,54.33c-.39,1.93-.99,4.54-.34,6.39l-1.3-.5c.22-2.24.5-3.43.98-5.57l.66-.33Z"/>
    <path class="cls-46" d="M18.13,43.85c.29.71.99,1.91,1.1,2.35.25,1.02-.58,1.32.87,2.24-.12.18-.09.48-.49.33l-.64-.34c-.93-1.93-1.64-3.47-2.14-5.56l.66-.66c.25.86.4,1.01.66,1.64Z"/>
    <path class="cls-9" d="M58.77,52.7c3.06-1.74,4.52-3.77,6.55-6.55,0,.03.3.17.26.42-.09.58-3.24,4.49-3.84,5-.33.29-2.5,1.68-2.97,1.13Z"/>
    <path class="cls-17" d="M69.91,40.57c1.98.16-1.42,1.92-1.48,2.29l-.65-.65-1.18,2.29c-.15,0-.28-.33-.3-.33.11-2.11,1.87-3.11,3.6-3.6Z"/>
    <path class="cls-5" d="M28.29,28.12c.03.12.34.3.34.79.02,1.61-.64,3.31-2.31,3.8.17-.98.81-1.76,1.1-2.7.24-.79-.57-1.86.87-1.89Z"/>
    <path class="cls-53" d="M16.5,35.98c-.01,2.18.36,4.14.98,6.23l-.66.66c-.78-3.21-.9-5.29-.33-8.52,0,.55,0,1.09,0,1.64Z"/>
    <path class="cls-50" d="M34.85,30.74l-3.28,5.9c-.14,0-.38-.14-.33-.33,1.15-2.18,1.8-3.77,3.28-5.9l.33.33Z"/>
    <path class="cls-23" d="M22.39,71.37c-.91,1.74-1.8,3.46-2.62,5.24.1-2.08,1.06-4.51,2.62-6.23l.33.17c-.02.31-.19.55-.33.81Z"/>
    <path class="cls-35" d="M26,25.17c.2.07.48.21.66.33,0,.36-.23.66-.33.98-.7-.02-1.33-.4-2.05-.28-.97.17-1.81,2.04-2.21,1.59-.57-.65,2.91-3.17,3.93-2.62Z"/>
    <path class="cls-44" d="M53.85,23.86l-1.58,4.48c-.24.87-1.01,1.69-1.37,2.4l2.29-7.21c.28.1.45.23.66.33Z"/>
    <path class="cls-46" d="M27.31,26.15c-.59,1.69-1.83,3.13-2.62,4.59.46-1.52,1.15-2.68,1.64-4.26.1-.32.32-.62.33-.98.38.25.41.39.66.66Z"/>
    <path class="cls-58" d="M31.24,84.81c.15-1.08-1.12-1.91-1.26-2.88-.07-.5.27-.64.28-.72,1.49.79,1.4,2.29.98,3.6Z"/>
    <path class="cls-84" d="M32.88,43.19c-1.31,1.79-.53,4.85.76,6.45.5.63,1.15.4,1.21.43,2.27,1.18,2.85,1.74,5.57,1.31,2.46-.38,3.75-1.25,5.24-3.28h.33c0,.69.61,1.46.66,1.97.1.99-3.84,8.63-4.49,10.42-2.14,5.85-4.97,17.38-3.2,23.32.16.55.43,1.21.81,1.65-.07.62-.4,1.08-.98,1.31-1.1-1.22-1.9-2.09-1.97-3.93-1.22-.33-.91.69-1.63.98-.5-1.7.81-6.25-.99-6.88-.45-.52-1.32-.29-2-.47-.32-.09-.54-.49-.62-.51-.25-1.3.23-2.63.29-3.8.03-.5-.25-.96-.2-1.51.47-5.15,2.37-10,3.51-15-.73.7-1.14,2.3-1.46,3.29-1.59,4.88-2.61,10.45-2.8,15.57-.02.63.33,1.31-.66,1.13-.78-.23-2.07-.15-2.62-.33-.06-.02-.2-.24-.33-.33-.58-1.66-.77-3.21-.98-4.91v-4.26c1.25-.03,1.13,1.7,1.97,2.29-.04.47-.26,2.15.32,2.29.29-5.76,1.85-11.29,3.39-16.78.11-.41.46-.99-.11-1.24-.27-.86-.78.91-.81.99-.46,1.31-1.15,3.29-1.49,4.58-2.03-.67-2.61-1.18-2.57-3.46,0-.28.27-.42.28-.48.95.2.6-.47.75-1.04.51-1.94,2.1-7.39,3.18-8.79.26-.34.92-.81,1.31-.98.08-.04.22.03.33,0Z"/>
    <path class="cls-75" d="M51.23,41.23l-3.58-1.51c-.22-.73,1.39-4.36,2.6-4.39,3.2,3.92,1.63-1.84-.33-2.29.4-.76.62-1.56.98-2.29s1.13-1.53,1.37-2.4l1.58-4.48c3.14,5.36-.17,12.31-2.62,17.37Z"/>
    <path class="cls-82" d="M45.66,48.11c-1.49,2.03-2.78,2.89-5.24,3.28,2.55-1.87-3.33-2.43-4.43-2.32-.74.07-1.15.14-1.14,1.01-.06-.03-.71.2-1.21-.43-1.29-1.6-2.07-4.66-.76-6.45.28-.07.56-.46.97-.18,2.11,2.69,5.24,4.12,8.7,3.78,1.64-.16,3.1-1.67,3.11,1.31Z"/>
    <path class="cls-63" d="M48.94,46.14c.3,0,.75-.06.98,0,2.14.57,2.69,6.08-1.97,4.59-.18-.75,2.63-3.56.81-3.93-.99-.2-1.61,2.54-1.8,3.27h-.33c-.05-.5-.66-1.27-.66-1.97.01-1.88,1.5-2.01,2.95-1.97Z"/>
    <path class="cls-59" d="M48.61,44.83c-.83-1.71-2.32-3.64-4.42-3.63-.71,0-4.02.72-1.64-.95,2.6-1.83,6.46,1.05,7.37,3.6-.37.49-.53.99-1.31.98Z"/>
    <path class="cls-74" d="M34.19,36.64c2.45-.5,5.91.89,5.27,3.73-1.2.83-.98-.5-1.51-1.09-.99-1.1-1.84-1.13-3.1-1-.77.08-1.5.38-2.29.33-.32-.88.96-1.83,1.64-1.96Z"/>
    <path class="cls-6" d="M50.25,22.88c-.82.54-1.86,1.28-2.71,1.71-1.93.97-3.06,1.23-4.83,3.03-.9.91-1.5,2.23-2.45,3.12-.33-.58.49-1.69.82-2.13,1.29-1.7,3.31-2.71,4.59-4.42,1.44-.61,3.01-1.26,4.59-1.31Z"/>
    <path class="cls-69" d="M38.12,29.76c-1.34.45-1.15,1.01-1.64,1.64-.52.68-.89,1.22-1.31,1.97-.32.55-.68.96-.98,1.64l-.33-.98c.66-1.33,1.58-2.48,1.97-3.93.22-.25.68-.67.98-.98l1.31.66Z"/>
    <path class="cls-55" d="M38.12,31.4c-.61,1.35-1,2.91-2.13,3.93-.26-1.14.9-1.56-.82-1.96.43-.74.79-1.29,1.31-1.97.51-.07,1.17.1,1.64,0Z"/>
    <path class="cls-12" d="M49.92,33.04c1.96.45,3.53,6.22.33,2.29-.2-.24-.14-.93-1-1.17-.16-.86.6-.98.68-1.13Z"/>
    <path class="cls-39" d="M38.12,29.76c.2-.06,1.2-.25,1.31-.18l.33.99c-.02.1-1.43.78-1.65.83-.47.1-1.13-.07-1.64,0,.49-.63.3-1.19,1.64-1.64Z"/>
    <path class="cls-40" d="M43.36,25.5c-1.41.99-2.63,2.15-3.93,3.28-.04-1.72,2.57-2.57,3.6-3.6l.33.33Z"/>
    <path class="cls-65" d="M72.2,46.8c.8,2.93-2.47,4.95-3.6,7.37l1.64-.17c-2.08,2.36-3.84,4.04-6.78,5.51-2.22,1.11-4.49,1.53-6.9,1.95-.63.11-.39-.01-.41-.58,3.03-.5,6.06-1.3,8.63-3,.59-.39.94-.69-.11-.6,1.31-.94,3.29-3.14,4.4-4.61,1.5-2,2.06-3.97,3.14-5.87Z"/>
    <path class="cls-28" d="M60.07,55.32c.18.94-.26.53-.72.74-1.97.92-5.85,2.18-7.8,1.06,3.25.17,5.54-.84,8.52-1.8Z"/>
    <path class="cls-62" d="M27.31,74.98c-.88-.63-1.84-4.82-1.96-6.06-.22-2.22.06-5.6.33-7.86.05-.42.12-1.74.65-1.8l.34,3.76-.66-.16c.12,1.99-.17,4.14-.03,6.1.04.6.33.95.35,1.11.22,1.71.4,3.25.98,4.91Z"/>
    <path class="cls-61" d="M31.9,52.37c.57.25.22.83.11,1.24-1.53,5.5-3.09,11.03-3.39,16.78-.58-.14-.36-1.82-.32-2.29.17-2.22.85-4.69,1.31-6.88.63-3.01,1.23-5.95,2.29-8.85Z"/>
    <path class="cls-29" d="M31.24,44.18c-1.08,1.4-2.67,6.85-3.18,8.79-.15.57.2,1.23-.75,1.04.4-3.47,2.14-6.59,3.28-9.83.22.01.44,0,.66,0Z"/>
    <path class="cls-67" d="M31.9,52.37c-1.06,2.9-1.67,5.84-2.29,8.85h-.33c.09-.36-.08-.93,0-1.31.15-.7.21-1.52.33-1.97.34-1.28,1.03-3.27,1.49-4.58.03-.09.53-1.85.81-.99Z"/>
    <path class="cls-84" d="M29.28,59.9c-.08.38.09.95,0,1.31-.48,1.88-1.29.77-1.57-.56l1.57-.75Z"/>
    <path class="cls-78" d="M18.46,38.28c-.44.02-.61.28-.55-.32.22-1.95.57-3.82,1.29-5.66.17-.43.41-1.48.9-1.56l-1.64,7.53Z"/>
    <path class="cls-64" d="M50.25,55.64c-2.93,6.77-8.46,19.08-6.46,26.29.08.28.8,2.08.89,2.22-1.1,1.19-2.34,1.74-3.93,1.97h-.33c-.11-.22-.24-.43-.33-.66-1.62-4.13-1.28-7.61-.62-11.92.81-5.24,2.62-10.57,4.48-15.51l.72-.75c.5-.21,2.25-.67,2.72-.96.3-.18.3-.75.76-.94.34-.14,1.6.34,2.09.26Z"/>
    <path class="cls-57" d="M57.13,26.81c1.14,1.83,1.56,6.09,1.31,8.19-.44,3.64-3.67,11.48-5.24,15.07-.35.81-.89,1.64-1.31,2.62s-1.28,2.12-1.64,2.95c-.49.08-1.75-.4-2.09-.26-.46.19-.46.75-.76.94-.47.29-2.22.75-2.72.96-.1-2.4,2.15-4.61,2.62-6.55.2.04.49-.05.66,0,4.66,1.49,4.1-4.01,1.97-4.59,1.29-4.34,4.09-8.63,5.22-12.96.76-2.89.66-4.77.35-7.68.68-.01,1.3.77,1.64,1.31Z"/>
    <path class="cls-60" d="M44.68,84.15c1.27,1.84,3.45,2.11,5.32,2.72.54.17,1.07.07.9.88-1.49,1.83-1.58,1.79-4.05,1.59s-4.74-1.1-6.1-3.23c1.6-.23,2.83-.78,3.93-1.97Z"/>
    <path class="cls-18" d="M44.35,77.27c1.87.18.5,3,1.14,4.27.28.55,3.12,1.23,1.8,2.12l-1.49.37c-1.21-.19-2.1-5.57-1.46-6.75Z"/>
    <path class="cls-27" d="M58.77,35.66c-.02-.11-.35-.41-.33-.66.25-2.1-.17-6.37-1.31-8.19.46-.43.69.33.84.64,1.33,2.77,1.09,5.26.8,8.21Z"/>
    <path class="cls-47" d="M40.42,86.12c.37.75.55,1.58,1.32,2.12l4.57,2.14c-.65.05-1.28,0-1.91-.22-1.83-.61-4.36-1.98-5.63-3.38.58-.23.91-.69.98-1.31h.33c.09.22.22.44.33.66Z"/>
    <path class="cls-73" d="M25.34,35.33c-.95,2.03-1.09,3.67-.98,5.9.03.7.3,3.04.47,3.64.15.56.46.53.85.78l-.49.82c-1.56-1.66-2.48-4.09-1.48-6.22l-.98.66c-.27-2.07.2-3.93.65-5.9.67.92,1.15.58,1.97.33Z"/>
    <path class="cls-7" d="M31.57,75.96c-.4-.11-.81-.18-1.31-.33.99.18.63-.5.66-1.13.19-5.12,1.21-10.69,2.8-15.57.32-.99.73-2.59,1.46-3.29-1.14,5-3.04,9.85-3.51,15-.05.55.23,1.01.2,1.51-.06,1.18-.54,2.5-.29,3.8Z"/>
    <path class="cls-37" d="M33.86,34.02c-.76,1.55-.17,2.59-2.29,2.62l3.28-5.9c.27-.23.78-.42.98-.66-.38,1.45-1.31,2.6-1.97,3.93Z"/>
    <path class="cls-31" d="M47.3,50.73c-.47,1.94-2.72,4.16-2.62,6.55l-.72.75c-1.86,4.95-3.67,10.27-4.48,15.51-.67,4.31-1,7.79.62,11.92h-.33c-.38-.44-.64-1.1-.81-1.65-1.77-5.93,1.06-17.47,3.2-23.32.65-1.79,4.59-9.43,4.49-10.42h.33c-.03.11.35.55.33.66Z"/>
    <path class="cls-51" d="M34.85,50.07c0-.87.4-.94,1.14-1.01,1.1-.11,6.98.45,4.43,2.32-2.73.42-3.3-.13-5.57-1.31Z"/>
    <path class="cls-63" d="M47.95,50.73c-.17-.05-.45.04-.66,0,.03-.11-.36-.55-.33-.66.19-.73.81-3.47,1.8-3.27,1.81.37-1,3.18-.81,3.93Z"/>
  </g>
</svg>