<?xml version="1.0" encoding="UTF-8"?>
<svg xmlns="http://www.w3.org/2000/svg" xmlns:xlink="http://www.w3.org/1999/xlink" version="1.1" viewBox="0 0 100 100">
  <!-- Generator: Adobe Illustrator 29.3.1, SVG Export Plug-In . SVG Version: 2.1.0 Build 151)  -->
  <defs>
    <style>
      .st0, .st1 {
        fill: none;
      }

      .st2 {
        fill: #b53737;
      }

      .st3 {
        fill: #0068ff;
      }

      .st4 {
        isolation: isolate;
      }

      .st5 {
        fill: #4191ff;
      }

      .st6 {
        fill: #fff;
      }

      .st7, .st8 {
        fill: #81b536;
      }

      .st9 {
        fill: #662d91;
      }

      .st9, .st8 {
        mix-blend-mode: multiply;
        opacity: .3;
      }

      .st1 {
        stroke: #fff;
        stroke-linecap: round;
        stroke-miterlimit: 10;
        stroke-width: .5px;
      }

      .st10 {
        fill: #d57d57;
      }

      .st11 {
        clip-path: url(#clippath);
      }

      .st12 {
        fill: #ad5e42;
      }
    </style>
    <clipPath id="clippath">
      <path class="st0" d="M98.6,50c0,26.8-21.8,48.6-48.6,48.6-64.5-2.6-64.5-94.7,0-97.2,26.8,0,48.6,21.8,48.6,48.6Z"/>
    </clipPath>
  </defs>
  <g class="st4">
    <g id="Layer_1">
      <g>
        <path class="st3" d="M69.9,12.1c.3-.5.6-1,.9-1.4l-.3.3c.6-.8,1.3-1.4,2-2l-.3.3c2-1.1.3-4.1-1.7-3-1.5,1.1-2.7,2.5-3.6,4.1-.2.4-.3.9-.2,1.3.3,1.4,2.4,1.7,3.1.4h0Z"/>
        <path class="st3" d="M64.5,10.8c-.1-2.2-.3-4.3-.4-6.5s-.7-1.7-1.7-1.7-1.8.7-1.7,1.7l.4,6.5c0,.9.7,1.7,1.7,1.7s1.8-.7,1.7-1.7h0Z"/>
        <path class="st3" d="M57.2,11.9l-8.2-5.2c-2-1.1-3.6,1.7-1.7,2.9,2.7,1.7,5.5,3.4,8.2,5.2s1.9.2,2.3-.6.2-1.8-.6-2.3h0Z"/>
        <g class="st11">
          <g>
            <path class="st10" d="M67.6,65.5s-4.1-7.7-1.2-12c2.2-3.2,7.5-9.7,10.1-12.7.8-1,.8-2.4-.1-3.3-1.2-1.2-3.1-1.3-4.4-.2l-6,5.1s4.7-8.6,6.7-11.4c1.4-1.9,3.7-5.4,5.1-7.6,1.1-1.8-1.2-3.7-2.7-2.2-1.7,1.7-5.2,5.2-6,6.5l-1.1,1.6s.8-3.1,2.4-5.7c.4-.7.7-1.2,1-1.7,1.3-2.2-1.9-4.3-3.4-2.3-1.5,2-3.7,4.8-4.3,6.1l1.9-4.2c.7-1.6-1.5-2.9-2.5-1.5,0,0-4.3,6-4.3,6,0,0,.3-1,.3-1,.2-.9-.3-1.8-1.2-2-.7-.2-1.5.2-1.8.9-2,4.1-3.9,8.3-5.9,12.4-1.7,3.6-4.2,6.7-5.7,10.5-1.3,3.4-2,7.1-1.3,10.6.6,2.8,1.9,5.3,3.7,7.5,1.6,2,4.1,3.7,5.1,6.1,2,7.8,3.7,15.8,5.7,23.7.1.6,2.5,9.7,2.4,9.8,0,0,25.4-9.1,25.4-9.1l-17.9-29.7Z"/>
            <path class="st2" d="M51.8,70.5l14.5-8.1s-.4-1.2-.6-2.2l-.2-1c-4.4,1.9-11.1,6.8-14.2,10.3.2.3.4.6.6.9Z"/>
            <g>
              <path class="st12" d="M59,47.4c-.2,0-.3-.2-.2-.3.5-1.2,1.2-2.2,2.1-3,1-1,2.7-1.8,3.8-1.9.5,0,.9-.2,1.5-.4.9-.3,1.3-.8,1.9-1.4.9-1,3.4-3,5-3.8.2-.1.5.2.2.4-1.6.8-4.1,2.7-4.9,3.8-.6.6-1,1.1-2,1.5-1.5.6-2.4.3-4,1.3-1.4.9-2.5,2.3-3.2,3.8,0,0-.1.1-.2.1Z"/>
              <path class="st12" d="M65.9,32.4c-.2,0-.3-.2-.2-.3.2-.2,4-5.5,4.5-6,.5-.6,5.1-5,5.3-5.2.2-.2.5.1.3.3,0,0-4.8,4.6-5.3,5.1-.5.5-4.4,5.9-4.4,6,0,0-.1,0-.2,0Z"/>
              <path class="st12" d="M59.9,31.9c-.2,0-.3-.2-.2-.3,2.7-4.2,5.4-8.5,8.6-12.3.2-.2.5,0,.3.3-1.6,2-3.1,4-4.6,6.1-1.2,1.8-2.8,4.3-4,6.2,0,0-.1.1-.2.1Z"/>
              <path class="st12" d="M55.2,31.9c-.2,0-.3-.1-.2-.3h0c2.6-4,5.1-7.9,8.2-11.7.2-.2.5,0,.3.3-3,3.7-5.7,7.8-8.2,11.6h0c0,0-.1.1-.2.1Z"/>
              <path class="st12" d="M58.6,38.2c-.7,0-1.4,0-2.2,0-4-.3-6.3-1.7-6.4-1.8-.2-.1,0-.5.2-.4,0,0,2.4,1.4,6.2,1.7,3.9.3,6.1-.3,6.1-.3.3,0,.4.3.1.4,0,0-1.5.4-4.1.4Z"/>
            </g>
            <polyline class="st2" points="52.1 74 68.7 64.3 67.2 61.9 50.9 71 52.1 74"/>
            <g>
              <path class="st5" d="M55.8,92.1c3.6-.5,6.8-2.2,10-3.6,6.2-2.9,12.4-5.9,17.6-10.3-1.4-1.8-4.3-5.9-4.6-6.3-8.3,7-18.3,12.9-29.5,13.6.4,2.3.9,4.3,1.4,6.9,1.7,0,3.3,0,5-.2Z"/>
              <path class="st5" d="M67.8,69.7c1.9-1.3,3.7-2.7,5.4-4.2-1.7-.9-3.3-1.1-4.4-1.2l-1.5-2.4-16.3,9.1,1.3,3c-1.1,1.3-1.8,2-2.2,2.4,6.4-.4,12.5-3.1,17.8-6.7Z"/>
              <path class="st5" d="M68.8,77.8c3.4-2,6.5-4.4,9.5-6.9-2.4-3.3-2.9-4-4.1-4.9-7,6.1-15.6,11.2-25,11.5-.6,1.1-.6,2.7.1,6.8,6.9-.4,13.6-2.9,19.5-6.5Z"/>
              <path class="st5" d="M53,98.8c7.2-.2,13.7-3.2,20.2-6,5.4-2.3,10.9-4.3,15.7-7.7-1.6-2.1-4.1-5.2-4.7-6.1-5.6,4.7-12.3,7.8-18.9,10.9-4.4,2.2-9.1,3.8-14.1,3.5.4,1.7.9,3.6,1.4,5.8,0-.2.3-.3.5-.3Z"/>
              <path class="st5" d="M61.5,105.3c11.3-2.7,22.4-7.1,31.8-14-.7-1.1-1.8-2.7-3.8-5.2-5.2,3.7-11.3,5.8-17.1,8.3-6.2,2.7-12.9,5.7-19.7,5.5.3,1.3,1.2,4.4,1.8,6.6,2.4,0,4.8-.6,7.1-1.1Z"/>
              <path class="st5" d="M80.6,99.9c-8.2,3.6-16.9,6.7-25.8,7.6.8,2.9,1.2,4.3,1.2,4.4.2,2.8.4,4.5,3.1,3.8,0,0,32.8-9.2,32.8-9.2.5-.1,1.3-2.7,1.5-3.3,1.3-3.4,1.9-7.4.6-11-4.2,3-8.6,5.6-13.3,7.7Z"/>
              <path class="st6" d="M73.5,66.7c.2-.2.5-.4.7-.6-.3-.2-.7-.4-1-.6-6.5,5.6-14.4,10.4-23.2,10.9-.8,1-.5.5-.9,1.1,9.2-.2,17.5-5,24.4-10.9Z"/>
              <path class="st6" d="M76,74.2c1-.8,2-1.6,2.9-2.4-.2-.3-.4-.6-.6-.9-8.2,6.9-18.1,12.8-29,13.4,0,.3.1.7.2,1.1,9.8-.6,18.9-5.3,26.5-11.2Z"/>
              <path class="st6" d="M60.2,92.1c8.4-3.5,16.9-7.3,23.9-13-.2-.3-.4-.6-.7-.9-5.3,4.4-11.5,7.4-17.6,10.3-4.7,2.4-9.7,4.3-15,3.9,0,.4.2.7.2,1.1,3.1,0,6.2-.2,9.1-1.3Z"/>
              <path class="st6" d="M52.5,99.4c0,.2,0,.3.2.4,0-.2-.1-.4-.2-.6,0,0,0,.1,0,.2Z"/>
              <path class="st6" d="M63,98.1c3.2-1.1,6.3-2.5,9.4-3.8,5.8-2.5,11.9-4.6,17.1-8.3-.2-.3-.4-.6-.7-.9-4.8,3.4-10.4,5.4-15.7,7.7-4.8,2-9.5,4.3-14.6,5.3-1.8.4-3.7.6-5.5.7-.2,0-.4.1-.5.3,0,.2.1.4.2.6,0,0,.2.1.3.1,3.4-.2,6.8-.7,10-1.8Z"/>
              <path class="st6" d="M90.2,93.4c-5.8,3.8-12.1,6.7-18.7,9-5.6,1.8-11.2,3.7-17.1,4,.1.4.2.8.3,1.1,5.5-.4,10.8-2.1,16-3.7,8.2-2.7,16.1-6.5,23.2-11.6-.1-.3-.3-.6-.5-1-1,.8-2.1,1.5-3.2,2.2Z"/>
            </g>
          </g>
          <g>
            <path class="st9" d="M62.6,48.3c-.2,8.5-4.2,25-13.4,21.8-4.6-2-4.6-8.6-4.2-13.1.8-9.3,1-18.7,1.6-28,4.1-.3,7.6.7,10.6,2.3,2.2,3.1,5.5,8.8,5.3,17.1Z"/>
            <path class="st7" d="M-2.4,74s25.2,11.8,27.5-21.7c2.3-33.5,12.7-32.7,20.9-31.2,8.1,1.5,21.6,18.3.7,56.4-14.1,25.8-48.6,12-48.6,12"/>
            <path class="st9" d="M6.5,76c-.8,4.7.2,9.8,4.6,12.4,5.7,3.5,13.7,3.8,19.2-.2,5-3.9,9.1-10,16.1-10-14.3,25.1-48.3,11.4-48.3,11.4l-.5-15.5s4,1.9,8.9,2Z"/>
            <path class="st7" d="M10.9,79.4c1.7-.4,3.2-1,4.9-1.5,1.5-.5,3.1-.7,4.5-1.3,2.1-.9,3-2.6,3.9-4.6.8-1.9,1.6-3.8,2.6-5.6,1.9-3,2.4-6.5,2.7-9.9.3-2,1-3.7,2.2-5.3.9-1.2,2-2.5,2-4.1,0-1.5-.7-3-.8-4.6,0-1.7.5-2.7,1.4-4.1,1.7-2.5,2.6-5.4,4.2-7.9.5-.7,1.3-1.2,1.9-1.9.6-.8.6-1.9.6-2.9-.1-2.8,2.8-3.3,4.8-4.4.2,0,.5,0,.7.1,0,0,0,.1.1.2,0,1.7-.2,3.4-.6,5-.5,1.6-1.7,2.6-2.3,4.1-.7,1.6-.4,3.4-.2,5.1.3,2.2.4,4.3-.3,6.5-.5,1.7-1.2,3.3-1.7,5-.9,3.6-.4,7.6-1.9,11.1-1.3,3-3.3,5.7-5.5,8.1-.6.7-.9,1.8-1,2.8.1,2.7.9,4.8-2.7,5-1,.1-1.9.6-2.7,1.2-.8.6-1.2,1.5-1.7,2.3-.9,1.6-2.1,3-3.7,4-2.9,1.9-6.4,1.7-9.6,1.9-5.1.4-10.1,0-14.8-2v-1.9c4.3.8,8.9.7,13-.2Z"/>
            <path class="st8" d="M-2,85.5c2.4.7,4.6,1.9,7.1,2.5,5.3,1.4,10.8,1.2,16.3.9,2.4-.1,5.4.3,7.5-1.1.5-.5.5-1.4.9-2,.7-1,1.9-.5,2.9-.9,2-.9,3.3-2.9,3.7-5,.4-1.8.4-3.7,1-5.4.6-1.7,1.8-1.9,3.3-2.6,1.4-.7,2.1-1.7,2.5-3.2.4-1.4.7-2.7,2.3-3.1,4.1-.6,1.9-5.7,3.7-8.2.5-.8,1.3-1.4,1.8-2.1,1.1-1.4.9-3.4.8-5.1-.2-2.5-.2-4.7.2-7.1,1.7-7.9,0-15-4.6-21.5,8.1,2.9,19.2,19.9-.6,56.1-14.1,25.8-48.6,12-48.6,12v-4.1c-.1,0-.1,0-.1,0Z"/>
            <line class="st1" x1="54.2" y1="41.7" x2="51" y2="43.8"/>
            <line class="st1" x1="54.1" y1="46.4" x2="51" y2="45.7"/>
            <line class="st1" x1="31.6" y1="52.4" x2="30" y2="50.2"/>
            <line class="st1" x1="28.7" y1="65.4" x2="25.4" y2="63.6"/>
            <line class="st1" x1="27" y1="67.6" x2="24.2" y2="67.6"/>
            <line class="st1" x1="12.1" y1="80.9" x2="13" y2="76.9"/>
            <line class="st1" x1="46.6" y1="59.5" x2="49.5" y2="58.1"/>
          </g>
        </g>
      </g>
    </g>
  </g>
</svg>