<?xml version="1.0" encoding="UTF-8"?>
<svg id="Layer_1" xmlns="http://www.w3.org/2000/svg" version="1.1" viewBox="0 0 100 100">
  <!-- Generator: Adobe Illustrator 29.3.1, SVG Export Plug-In . SVG Version: 2.1.0 Build 151)  -->
  <defs>
    <style>
      .st0 {
        fill: #0068ff;
      }

      .st1 {
        fill: #fff;
      }
    </style>
  </defs>
  <rect class="st0" x=".3" y="0" width="99.4" height="153.3" rx="20.1" ry="20.1"/>
  <path class="st1" d="M25.6,28.3c-1.6,0-3.2-.4-4.6-1.2l-5.3,1.4,1.4-5.3c-.8-1.4-1.2-3.1-1.2-4.7,0-5.4,4.4-9.8,9.8-9.8s9.8,4.4,9.8,9.8-4.4,9.8-9.8,9.8ZM25.6,10.6c-4.4,0-7.9,3.5-7.9,7.9s.4,2.9,1.2,4.1l.2.3-.8,2.9,3-.8.3.2c1.2.7,2.6,1.1,4,1.1,4.4,0,7.9-3.5,7.9-7.9s-3.5-7.9-7.9-7.9ZM30.3,21.5c-.3.7-1,1.2-1.8,1.3-.7.1-1.3,0-1.9-.3-.6-.2-1.1-.5-1.7-.8-1-.6-2-1.5-2.7-2.5-.2-.3-.4-.6-.6-.9-.3-.4-.5-.9-.6-1.4,0-.2,0-.4,0-.6,0-.7.3-1.5.9-1.9.3-.3.8-.4,1.2-.2.4.2.6.8.8,1.2.1.3.3.7.3,1.1,0,.4-.3.7-.6.9-.2.2-.2.3,0,.5.8,1.3,1.8,2.2,3.2,2.7.2,0,.3,0,.5,0,.2-.3.5-.9.8-1,.5-.2,1,0,1.4.3.4.2,1,.5,1.1,1,0,.2,0,.5,0,.7Z"/>
</svg>